<?plantuml 1.2026.2?><svg xmlns="http://www.w3.org/2000/svg" xmlns:xlink="http://www.w3.org/1999/xlink" contentStyleType="text/css" data-diagram-type="DESCRIPTION" height="966px" preserveAspectRatio="none" style="width:1231px;height:966px;background:#FFFFFF;" version="1.1" viewBox="0 0 1231 966" width="1231px" zoomAndPan="magnify"><title>ITU-MiniTwit System Architecture</title><defs/><g><g class="title" data-source-line="1"><text fill="#000000" font-family="sans-serif" font-size="14" font-weight="bold" lengthAdjust="spacing" textLength="245.916" x="485.952" y="23.5352">ITU-MiniTwit System Architecture</text></g><!--cluster Chirp.Web--><g class="cluster" data-qualified-name="Chirp.Web" data-source-line="11" id="ent0004"><path d="M203.26,182.4783 L277.2131,182.4783 A3.75,3.75 0 0 1 279.7131,184.9783 L286.7131,204.9666 L807.26,204.9666 A2.5,2.5 0 0 1 809.76,207.4666 L809.76,468.3983 A2.5,2.5 0 0 1 807.26,470.8983 L203.26,470.8983 A2.5,2.5 0 0 1 200.76,468.3983 L200.76,184.9783 A2.5,2.5 0 0 1 203.26,182.4783" fill="none" style="stroke:#000000;stroke-width:1.5;"/><line style="stroke:#000000;stroke-width:1.5;" x1="200.76" x2="286.7131" y1="204.9666" y2="204.9666"/><text fill="#000000" font-family="sans-serif" font-size="14" font-weight="bold" lengthAdjust="spacing" textLength="72.9531" x="204.76" y="198.0134">Chirp.Web</text></g><!--cluster Chirp.Infrastructure--><g class="cluster" data-qualified-name="Chirp.Infrastructure" data-source-line="18" id="ent0009"><path d="M836.26,366.9183 L980.3498,366.9183 A3.75,3.75 0 0 1 982.8498,369.4183 L989.8498,389.4066 L1171.26,389.4066 A2.5,2.5 0 0 1 1173.76,391.9066 L1173.76,787.2383 A2.5,2.5 0 0 1 1171.26,789.7383 L836.26,789.7383 A2.5,2.5 0 0 1 833.76,787.2383 L833.76,369.4183 A2.5,2.5 0 0 1 836.26,366.9183" fill="none" style="stroke:#000000;stroke-width:1.5;"/><line style="stroke:#000000;stroke-width:1.5;" x1="833.76" x2="989.8498" y1="389.4066" y2="389.4066"/><text fill="#000000" font-family="sans-serif" font-size="14" font-weight="bold" lengthAdjust="spacing" textLength="143.0898" x="837.76" y="382.4534">Chirp.Infrastructure</text></g><!--cluster Chirp.Core--><g class="cluster" data-qualified-name="Chirp.Core" data-source-line="26" id="ent0015"><path d="M1007.26,838.7383 L1084.5627,838.7383 A3.75,3.75 0 0 1 1087.0627,841.2383 L1094.0627,861.2266 L1170.26,861.2266 A2.5,2.5 0 0 1 1172.76,863.7266 L1172.76,956.6983 A2.5,2.5 0 0 1 1170.26,959.1983 L1007.26,959.1983 A2.5,2.5 0 0 1 1004.76,956.6983 L1004.76,841.2383 A2.5,2.5 0 0 1 1007.26,838.7383" fill="none" style="stroke:#000000;stroke-width:1.5;"/><line style="stroke:#000000;stroke-width:1.5;" x1="1004.76" x2="1094.0627" y1="861.2266" y2="861.2266"/><text fill="#000000" font-family="sans-serif" font-size="14" font-weight="bold" lengthAdjust="spacing" textLength="76.3027" x="1008.76" y="854.2734">Chirp.Core</text></g><!--entity RazorUI--><g class="entity" data-qualified-name="Chirp.Web.RazorUI" data-source-line="12" id="ent0005"><rect fill="#F1F1F1" height="102.4414" rx="2.5" ry="2.5" style="stroke:#181818;stroke-width:0.5;" width="166.6992" x="419.41" y="217.4783"/><text fill="#000000" font-family="sans-serif" font-size="14" lengthAdjust="spacing" textLength="38.9375" x="429.41" y="241.0134">Razor</text><text fill="#000000" font-family="sans-serif" font-size="14" lengthAdjust="spacing" textLength="4.4297" x="468.3475" y="241.0134">&#160;</text><text fill="#000000" font-family="sans-serif" font-size="14" lengthAdjust="spacing" textLength="39.1357" x="472.7772" y="241.0134">Pages</text><text fill="#000000" font-family="sans-serif" font-size="14" lengthAdjust="spacing" textLength="4.4297" x="511.9129" y="241.0134">&#160;</text><text fill="#000000" font-family="sans-serif" font-size="14" lengthAdjust="spacing" textLength="13.7334" x="516.3426" y="241.0134">UI</text><text fill="#000000" font-family="sans-serif" font-size="14" lengthAdjust="spacing" textLength="40.5029" x="429.41" y="257.5017">Public</text><text fill="#000000" font-family="sans-serif" font-size="14" lengthAdjust="spacing" textLength="4.4297" x="469.9129" y="257.5017">&#160;</text><text fill="#000000" font-family="sans-serif" font-size="14" lengthAdjust="spacing" textLength="59.165" x="474.3426" y="257.5017">timeline,</text><text fill="#000000" font-family="sans-serif" font-size="14" lengthAdjust="spacing" textLength="4.4297" x="533.5077" y="257.5017">&#160;</text><text fill="#000000" font-family="sans-serif" font-size="14" lengthAdjust="spacing" textLength="29.3535" x="537.9373" y="257.5017">user</text><text fill="#000000" font-family="sans-serif" font-size="14" lengthAdjust="spacing" textLength="59.165" x="429.41" y="273.99">timeline,</text><text fill="#000000" font-family="sans-serif" font-size="14" lengthAdjust="spacing" textLength="98.0889" x="429.41" y="290.4783">login/register,</text><text fill="#000000" font-family="sans-serif" font-size="14" lengthAdjust="spacing" textLength="4.4297" x="527.4989" y="290.4783">&#160;</text><text fill="#000000" font-family="sans-serif" font-size="14" lengthAdjust="spacing" textLength="44.1807" x="531.9286" y="290.4783">profile</text><text fill="#000000" font-family="sans-serif" font-size="14" lengthAdjust="spacing" textLength="40.209" x="429.41" y="306.9666">pages</text></g><!--entity IdentityUI--><g class="entity" data-qualified-name="Chirp.Web.IdentityUI" data-source-line="13" id="ent0006"><rect fill="#F1F1F1" height="52.9766" rx="2.5" ry="2.5" style="stroke:#181818;stroke-width:0.5;" width="167.9912" x="216.76" y="242.2083"/><text fill="#000000" font-family="sans-serif" font-size="14" lengthAdjust="spacing" textLength="51.167" x="226.76" y="265.7434">Identity</text><text fill="#000000" font-family="sans-serif" font-size="14" lengthAdjust="spacing" textLength="4.4297" x="277.927" y="265.7434">&#160;</text><text fill="#000000" font-family="sans-serif" font-size="14" lengthAdjust="spacing" textLength="39.1357" x="282.3567" y="265.7434">Pages</text><text fill="#000000" font-family="sans-serif" font-size="14" lengthAdjust="spacing" textLength="56.1504" x="226.76" y="282.2317">ASP.NET</text><text fill="#000000" font-family="sans-serif" font-size="14" lengthAdjust="spacing" textLength="4.4297" x="282.9104" y="282.2317">&#160;</text><text fill="#000000" font-family="sans-serif" font-size="14" lengthAdjust="spacing" textLength="31.8145" x="287.3401" y="282.2317">Core</text><text fill="#000000" font-family="sans-serif" font-size="14" lengthAdjust="spacing" textLength="4.4297" x="319.1545" y="282.2317">&#160;</text><text fill="#000000" font-family="sans-serif" font-size="14" lengthAdjust="spacing" textLength="51.167" x="323.5842" y="282.2317">Identity</text></g><!--entity SimulatorAPI--><g class="entity" data-qualified-name="Chirp.Web.SimulatorAPI" data-source-line="14" id="ent0007"><rect fill="#F1F1F1" height="69.4648" rx="2.5" ry="2.5" style="stroke:#181818;stroke-width:0.5;" width="172.7422" x="621.39" y="233.9683"/><text fill="#000000" font-family="sans-serif" font-size="14" lengthAdjust="spacing" textLength="57.7637" x="631.39" y="257.5034">MiniTwit</text><text fill="#000000" font-family="sans-serif" font-size="14" lengthAdjust="spacing" textLength="4.4297" x="689.1537" y="257.5034">&#160;</text><text fill="#000000" font-family="sans-serif" font-size="14" lengthAdjust="spacing" textLength="64.6885" x="693.5834" y="257.5034">Simulator</text><text fill="#000000" font-family="sans-serif" font-size="14" lengthAdjust="spacing" textLength="4.4297" x="758.2718" y="257.5034">&#160;</text><text fill="#000000" font-family="sans-serif" font-size="14" lengthAdjust="spacing" textLength="21.4307" x="762.7015" y="257.5034">API</text><text fill="#000000" font-family="sans-serif" font-size="14" lengthAdjust="spacing" textLength="48.959" x="631.39" y="273.9917">/latest,</text><text fill="#000000" font-family="sans-serif" font-size="14" lengthAdjust="spacing" textLength="4.4297" x="680.349" y="273.9917">&#160;</text><text fill="#000000" font-family="sans-serif" font-size="14" lengthAdjust="spacing" textLength="63.9775" x="684.7787" y="273.9917">/register,</text><text fill="#000000" font-family="sans-serif" font-size="14" lengthAdjust="spacing" textLength="47.8447" x="631.39" y="290.48">/msgs,</text><text fill="#000000" font-family="sans-serif" font-size="14" lengthAdjust="spacing" textLength="4.4297" x="679.2347" y="290.48">&#160;</text><text fill="#000000" font-family="sans-serif" font-size="14" lengthAdjust="spacing" textLength="38.5068" x="683.6644" y="290.48">/fllws</text></g><!--entity WebPipeline--><g class="entity" data-qualified-name="Chirp.Web.WebPipeline" data-source-line="15" id="ent0008"><rect fill="#F1F1F1" height="69.4648" rx="2.5" ry="2.5" style="stroke:#181818;stroke-width:0.5;" width="197.1602" x="404.18" y="385.4283"/><text fill="#000000" font-family="sans-serif" font-size="14" lengthAdjust="spacing" textLength="56.1504" x="414.18" y="408.9634">ASP.NET</text><text fill="#000000" font-family="sans-serif" font-size="14" lengthAdjust="spacing" textLength="4.4297" x="470.3304" y="408.9634">&#160;</text><text fill="#000000" font-family="sans-serif" font-size="14" lengthAdjust="spacing" textLength="31.8145" x="474.7601" y="408.9634">Core</text><text fill="#000000" font-family="sans-serif" font-size="14" lengthAdjust="spacing" textLength="4.4297" x="506.5745" y="408.9634">&#160;</text><text fill="#000000" font-family="sans-serif" font-size="14" lengthAdjust="spacing" textLength="52.9785" x="511.0042" y="408.9634">Pipeline</text><text fill="#000000" font-family="sans-serif" font-size="14" lengthAdjust="spacing" textLength="57.2715" x="414.18" y="425.4517">Routing,</text><text fill="#000000" font-family="sans-serif" font-size="14" lengthAdjust="spacing" textLength="4.4297" x="471.4515" y="425.4517">&#160;</text><text fill="#000000" font-family="sans-serif" font-size="14" lengthAdjust="spacing" textLength="102.0195" x="475.8812" y="425.4517">authentication,</text><text fill="#000000" font-family="sans-serif" font-size="14" lengthAdjust="spacing" textLength="62.1113" x="414.18" y="441.94">sessions,</text><text fill="#000000" font-family="sans-serif" font-size="14" lengthAdjust="spacing" textLength="4.4297" x="476.2913" y="441.94">&#160;</text><text fill="#000000" font-family="sans-serif" font-size="14" lengthAdjust="spacing" textLength="56" x="480.721" y="441.94">logging,</text><text fill="#000000" font-family="sans-serif" font-size="14" lengthAdjust="spacing" textLength="4.4297" x="536.721" y="441.94">&#160;</text><text fill="#000000" font-family="sans-serif" font-size="14" lengthAdjust="spacing" textLength="50.1895" x="541.1507" y="441.94">metrics</text></g><!--entity AuthorService--><g class="entity" data-qualified-name="Chirp.Infrastructure.AuthorService" data-source-line="19" id="ent0010"><rect fill="#F1F1F1" height="36.4883" rx="2.5" ry="2.5" style="stroke:#181818;stroke-width:0.5;" width="113.9326" x="994.79" y="401.9183"/><text fill="#000000" font-family="sans-serif" font-size="14" lengthAdjust="spacing" textLength="93.9326" x="1004.79" y="425.4534">AuthorService</text></g><!--entity CheepService--><g class="entity" data-qualified-name="Chirp.Infrastructure.CheepService" data-source-line="20" id="ent0011"><rect fill="#F1F1F1" height="36.4883" rx="2.5" ry="2.5" style="stroke:#181818;stroke-width:0.5;" width="110.1182" x="849.7" y="401.9183"/><text fill="#000000" font-family="sans-serif" font-size="14" lengthAdjust="spacing" textLength="90.1182" x="859.7" y="425.4534">CheepService</text></g><!--entity AuthorRepository--><g class="entity" data-qualified-name="Chirp.Infrastructure.AuthorRepository" data-source-line="21" id="ent0012"><rect fill="#F1F1F1" height="36.4883" rx="2.5" ry="2.5" style="stroke:#181818;stroke-width:0.5;" width="138.7266" x="1019.4" y="581.5783"/><text fill="#000000" font-family="sans-serif" font-size="14" lengthAdjust="spacing" textLength="118.7266" x="1029.4" y="605.1134">AuthorRepository</text></g><!--entity CheepRepository--><g class="entity" data-qualified-name="Chirp.Infrastructure.CheepRepository" data-source-line="22" id="ent0013"><rect fill="#F1F1F1" height="36.4883" rx="2.5" ry="2.5" style="stroke:#181818;stroke-width:0.5;" width="134.9121" x="849.3" y="581.5783"/><text fill="#000000" font-family="sans-serif" font-size="14" lengthAdjust="spacing" textLength="114.9121" x="859.3" y="605.1134">CheepRepository</text></g><!--entity DbContext--><g class="entity" data-qualified-name="Chirp.Infrastructure.DbContext" data-source-line="23" id="ent0014"><path d="M1020.8,721.7583 C1020.8,711.7583 1088.7585,711.7583 1088.7585,711.7583 C1088.7585,711.7583 1156.717,711.7583 1156.717,721.7583 L1156.717,763.7348 C1156.717,773.7348 1088.7585,773.7348 1088.7585,773.7348 C1088.7585,773.7348 1020.8,773.7348 1020.8,763.7348 L1020.8,721.7583" fill="#F1F1F1" style="stroke:#181818;stroke-width:0.5;"/><path d="M1020.8,721.7583 C1020.8,731.7583 1088.7585,731.7583 1088.7585,731.7583 C1088.7585,731.7583 1156.717,731.7583 1156.717,721.7583" fill="none" style="stroke:#181818;stroke-width:0.5;"/><text fill="#000000" font-family="sans-serif" font-size="14" lengthAdjust="spacing" textLength="115.917" x="1030.8" y="749.2934">CheepDbContext</text><text fill="#000000" font-family="sans-serif" font-size="14" lengthAdjust="spacing" textLength="15.0938" x="1030.8" y="765.7817">EF</text><text fill="#000000" font-family="sans-serif" font-size="14" lengthAdjust="spacing" textLength="4.4297" x="1045.8938" y="765.7817">&#160;</text><text fill="#000000" font-family="sans-serif" font-size="14" lengthAdjust="spacing" textLength="31.8145" x="1050.3234" y="765.7817">Core</text><text fill="#000000" font-family="sans-serif" font-size="14" lengthAdjust="spacing" textLength="4.4297" x="1082.1379" y="765.7817">&#160;</text><text fill="#000000" font-family="sans-serif" font-size="14" lengthAdjust="spacing" textLength="7.3418" x="1086.5676" y="765.7817">/</text><text fill="#000000" font-family="sans-serif" font-size="14" lengthAdjust="spacing" textLength="4.4297" x="1093.9094" y="765.7817">&#160;</text><text fill="#000000" font-family="sans-serif" font-size="14" lengthAdjust="spacing" textLength="47.8789" x="1098.3391" y="765.7817">Npgsql</text></g><!--entity DomainModel--><g class="entity" data-qualified-name="Chirp.Core.DomainModel" data-source-line="27" id="ent0016"><rect fill="#F1F1F1" height="69.4648" rx="2.5" ry="2.5" style="stroke:#181818;stroke-width:0.5;" width="136.5049" x="1020.51" y="873.7383"/><text fill="#000000" font-family="sans-serif" font-size="14" lengthAdjust="spacing" textLength="52.623" x="1030.51" y="897.2734">Domain</text><text fill="#000000" font-family="sans-serif" font-size="14" lengthAdjust="spacing" textLength="4.4297" x="1083.133" y="897.2734">&#160;</text><text fill="#000000" font-family="sans-serif" font-size="14" lengthAdjust="spacing" textLength="41.3164" x="1087.5627" y="897.2734">Model</text><text fill="#000000" font-family="sans-serif" font-size="14" lengthAdjust="spacing" textLength="51.0303" x="1030.51" y="913.7617">Author,</text><text fill="#000000" font-family="sans-serif" font-size="14" lengthAdjust="spacing" textLength="4.4297" x="1081.5403" y="913.7617">&#160;</text><text fill="#000000" font-family="sans-serif" font-size="14" lengthAdjust="spacing" textLength="47.2158" x="1085.97" y="913.7617">Cheep,</text><text fill="#000000" font-family="sans-serif" font-size="14" lengthAdjust="spacing" textLength="55.1523" x="1030.51" y="930.25">Follows,</text><text fill="#000000" font-family="sans-serif" font-size="14" lengthAdjust="spacing" textLength="4.4297" x="1085.6623" y="930.25">&#160;</text><text fill="#000000" font-family="sans-serif" font-size="14" lengthAdjust="spacing" textLength="56.9229" x="1090.092" y="930.25">Recheep</text></g><!--entity WebUser--><g class="entity" data-qualified-name="WebUser" data-source-line="8" id="ent0002"><ellipse cx="396.7614" cy="51.4883" fill="#F1F1F1" rx="8" ry="8" style="stroke:#181818;stroke-width:0.5;"/><path d="M396.7614,59.4883 L396.7614,86.4883 M383.7614,67.4883 L409.7614,67.4883 M396.7614,86.4883 L383.7614,101.4883 M396.7614,86.4883 L409.7614,101.4883" fill="none" style="stroke:#181818;stroke-width:0.5;"/><text fill="#000000" font-family="sans-serif" font-size="14" lengthAdjust="spacing" textLength="28.5879" x="365.07" y="116.5234">Web</text><text fill="#000000" font-family="sans-serif" font-size="14" lengthAdjust="spacing" textLength="4.4297" x="393.6579" y="116.5234">&#160;</text><text fill="#000000" font-family="sans-serif" font-size="14" lengthAdjust="spacing" textLength="30.3652" x="398.0876" y="116.5234">User</text></g><!--entity Simulator--><g class="entity" data-qualified-name="Simulator" data-source-line="9" id="ent0003"><ellipse cx="707.7589" cy="51.4883" fill="#F1F1F1" rx="8" ry="8" style="stroke:#181818;stroke-width:0.5;"/><path d="M707.7589,59.4883 L707.7589,86.4883 M694.7589,67.4883 L720.7589,67.4883 M707.7589,86.4883 L694.7589,101.4883 M707.7589,86.4883 L720.7589,101.4883" fill="none" style="stroke:#181818;stroke-width:0.5;"/><text fill="#000000" font-family="sans-serif" font-size="14" lengthAdjust="spacing" textLength="47.6396" x="649.38" y="116.5234">Course</text><text fill="#000000" font-family="sans-serif" font-size="14" lengthAdjust="spacing" textLength="4.4297" x="697.0196" y="116.5234">&#160;</text><text fill="#000000" font-family="sans-serif" font-size="14" lengthAdjust="spacing" textLength="64.6885" x="701.4493" y="116.5234">Simulator</text></g><!--entity PostgreSQL--><g class="entity" data-qualified-name="PostgreSQL" data-source-line="30" id="ent0017"><path d="M823.63,887.4783 C823.63,877.4783 904.7648,877.4783 904.7648,877.4783 C904.7648,877.4783 985.8995,877.4783 985.8995,887.4783 L985.8995,929.4548 C985.8995,939.4548 904.7648,939.4548 904.7648,939.4548 C904.7648,939.4548 823.63,939.4548 823.63,929.4548 L823.63,887.4783" fill="#F1F1F1" style="stroke:#181818;stroke-width:0.5;"/><path d="M823.63,887.4783 C823.63,897.4783 904.7648,897.4783 904.7648,897.4783 C904.7648,897.4783 985.8995,897.4783 985.8995,887.4783" fill="none" style="stroke:#181818;stroke-width:0.5;"/><text fill="#000000" font-family="sans-serif" font-size="14" lengthAdjust="spacing" textLength="76.8496" x="833.63" y="915.0134">PostgreSQL</text><text fill="#000000" font-family="sans-serif" font-size="14" lengthAdjust="spacing" textLength="76.8496" x="833.63" y="931.5017">Application</text><text fill="#000000" font-family="sans-serif" font-size="14" lengthAdjust="spacing" textLength="4.4297" x="910.4796" y="931.5017">&#160;</text><text fill="#000000" font-family="sans-serif" font-size="14" lengthAdjust="spacing" textLength="60.9902" x="914.9093" y="931.5017">database</text></g><!--entity Redis--><g class="entity" data-qualified-name="Redis" data-source-line="31" id="ent0018"><path d="M218.31,570.5883 C218.31,560.5883 316.7636,560.5883 316.7636,560.5883 C316.7636,560.5883 415.2172,560.5883 415.2172,570.5883 L415.2172,629.0531 C415.2172,639.0531 316.7636,639.0531 316.7636,639.0531 C316.7636,639.0531 218.31,639.0531 218.31,629.0531 L218.31,570.5883" fill="#F1F1F1" style="stroke:#181818;stroke-width:0.5;"/><path d="M218.31,570.5883 C218.31,580.5883 316.7636,580.5883 316.7636,580.5883 C316.7636,580.5883 415.2172,580.5883 415.2172,570.5883" fill="none" style="stroke:#181818;stroke-width:0.5;"/><text fill="#000000" font-family="sans-serif" font-size="14" lengthAdjust="spacing" textLength="36.6475" x="228.31" y="598.1234">Redis</text><text fill="#000000" font-family="sans-serif" font-size="14" lengthAdjust="spacing" textLength="76.0293" x="228.31" y="614.6117">Distributed</text><text fill="#000000" font-family="sans-serif" font-size="14" lengthAdjust="spacing" textLength="4.4297" x="304.3393" y="614.6117">&#160;</text><text fill="#000000" font-family="sans-serif" font-size="14" lengthAdjust="spacing" textLength="96.4482" x="308.769" y="614.6117">cache/session</text><text fill="#000000" font-family="sans-serif" font-size="14" lengthAdjust="spacing" textLength="53.0127" x="228.31" y="631.1">support</text></g><!--entity Prometheus--><g class="entity" data-qualified-name="Prometheus" data-source-line="32" id="ent0019"><rect fill="#F1F1F1" height="52.9766" rx="2.5" ry="2.5" style="stroke:#181818;stroke-width:0.5;" width="133.8799" x="449.82" y="573.3383"/><text fill="#000000" font-family="sans-serif" font-size="14" lengthAdjust="spacing" textLength="80.4863" x="459.82" y="596.8734">Prometheus</text><text fill="#000000" font-family="sans-serif" font-size="14" lengthAdjust="spacing" textLength="51.9189" x="459.82" y="613.3617">Scrapes</text><text fill="#000000" font-family="sans-serif" font-size="14" lengthAdjust="spacing" textLength="4.4297" x="511.7389" y="613.3617">&#160;</text><text fill="#000000" font-family="sans-serif" font-size="14" lengthAdjust="spacing" textLength="57.5313" x="516.1686" y="613.3617">/metrics</text></g><!--entity Logs--><g class="entity" data-qualified-name="Logs" data-source-line="33" id="ent0020"><rect fill="#F1F1F1" height="52.9766" rx="2.5" ry="2.5" style="stroke:#181818;stroke-width:0.5;" width="133.21" x="619.16" y="573.3383"/><text fill="#000000" font-family="sans-serif" font-size="14" lengthAdjust="spacing" textLength="76.8496" x="629.16" y="596.8734">Application</text><text fill="#000000" font-family="sans-serif" font-size="14" lengthAdjust="spacing" textLength="4.4297" x="706.0096" y="596.8734">&#160;</text><text fill="#000000" font-family="sans-serif" font-size="14" lengthAdjust="spacing" textLength="31.9307" x="710.4393" y="596.8734">Logs</text><text fill="#000000" font-family="sans-serif" font-size="14" lengthAdjust="spacing" textLength="91.4922" x="629.16" y="613.3617">stdout/stderr</text></g><g class="entity" data-qualified-name="GMN40" data-source-line="61" id="ent0041"><path d="M829.07,217.7683 L829.07,264.6983 L794.62,268.6983 L829.07,272.6983 L829.07,319.6316 A0,0 0 0 0 829.07,319.6316 L1022.4533,319.6316 A0,0 0 0 0 1022.4533,319.6316 L1022.4533,227.7683 L1012.4533,217.7683 L829.07,217.7683 A0,0 0 0 0 829.07,217.7683" fill="#FEFFDD" style="stroke:#181818;stroke-width:0.5;"/><path d="M1012.4533,217.7683 L1012.4533,227.7683 L1022.4533,227.7683 L1012.4533,217.7683" fill="#FEFFDD" style="stroke:#181818;stroke-width:0.5;"/><text fill="#000000" font-family="sans-serif" font-size="13" lengthAdjust="spacing" textLength="23.5308" x="835.07" y="235.3366">The</text><text fill="#000000" font-family="sans-serif" font-size="13" lengthAdjust="spacing" textLength="4.1133" x="858.6008" y="235.3366">&#160;</text><text fill="#000000" font-family="sans-serif" font-size="13" lengthAdjust="spacing" textLength="59.6934" x="862.714" y="235.3366">simulator</text><text fill="#000000" font-family="sans-serif" font-size="13" lengthAdjust="spacing" textLength="4.1133" x="922.4074" y="235.3366">&#160;</text><text fill="#000000" font-family="sans-serif" font-size="13" lengthAdjust="spacing" textLength="19.8999" x="926.5207" y="235.3366">API</text><text fill="#000000" font-family="sans-serif" font-size="13" lengthAdjust="spacing" textLength="4.1133" x="946.4206" y="235.3366">&#160;</text><text fill="#000000" font-family="sans-serif" font-size="13" lengthAdjust="spacing" textLength="10.3848" x="950.5339" y="235.3366">is</text><text fill="#000000" font-family="sans-serif" font-size="13" lengthAdjust="spacing" textLength="4.1133" x="960.9186" y="235.3366">&#160;</text><text fill="#000000" font-family="sans-serif" font-size="13" lengthAdjust="spacing" textLength="25.543" x="965.0319" y="235.3366">part</text><text fill="#000000" font-family="sans-serif" font-size="13" lengthAdjust="spacing" textLength="4.1133" x="990.5749" y="235.3366">&#160;</text><text fill="#000000" font-family="sans-serif" font-size="13" lengthAdjust="spacing" textLength="12.7651" x="994.6882" y="235.3366">of</text><text fill="#000000" font-family="sans-serif" font-size="13" lengthAdjust="spacing" textLength="20.1729" x="835.07" y="250.6472">the</text><text fill="#000000" font-family="sans-serif" font-size="13" lengthAdjust="spacing" textLength="57.5669" x="835.07" y="265.9577">deployed</text><text fill="#000000" font-family="sans-serif" font-size="13" lengthAdjust="spacing" textLength="4.1133" x="892.6369" y="265.9577">&#160;</text><text fill="#000000" font-family="sans-serif" font-size="13" lengthAdjust="spacing" textLength="25.4414" x="896.7502" y="265.9577">web</text><text fill="#000000" font-family="sans-serif" font-size="13" lengthAdjust="spacing" textLength="4.1133" x="922.1916" y="265.9577">&#160;</text><text fill="#000000" font-family="sans-serif" font-size="13" lengthAdjust="spacing" textLength="69.5703" x="926.3049" y="265.9577">application</text><text fill="#000000" font-family="sans-serif" font-size="13" lengthAdjust="spacing" textLength="23.4292" x="835.07" y="281.2683">and</text><text fill="#000000" font-family="sans-serif" font-size="13" lengthAdjust="spacing" textLength="4.1133" x="858.4992" y="281.2683">&#160;</text><text fill="#000000" font-family="sans-serif" font-size="13" lengthAdjust="spacing" textLength="41.063" x="862.6125" y="281.2683">shares</text><text fill="#000000" font-family="sans-serif" font-size="13" lengthAdjust="spacing" textLength="20.1729" x="835.07" y="296.5788">the</text><text fill="#000000" font-family="sans-serif" font-size="13" lengthAdjust="spacing" textLength="4.1133" x="855.2429" y="296.5788">&#160;</text><text fill="#000000" font-family="sans-serif" font-size="13" lengthAdjust="spacing" textLength="33.1855" x="859.3561" y="296.5788">same</text><text fill="#000000" font-family="sans-serif" font-size="13" lengthAdjust="spacing" textLength="4.1133" x="892.5417" y="296.5788">&#160;</text><text fill="#000000" font-family="sans-serif" font-size="13" lengthAdjust="spacing" textLength="69.5703" x="896.655" y="296.5788">application</text><text fill="#000000" font-family="sans-serif" font-size="13" lengthAdjust="spacing" textLength="60.7471" x="835.07" y="311.8894">database.</text></g><g class="entity" data-qualified-name="GMN43" data-source-line="67" id="ent0044"><path d="M6,548.8983 L6,650.7616 L183.5205,650.7616 L183.5205,558.8983 L173.5205,548.8983 L6,548.8983" fill="#FEFFDD" style="stroke:#181818;stroke-width:0.5;"/><path d="M173.5205,548.8983 L173.5205,558.8983 L183.5205,558.8983 L173.5205,548.8983" fill="#FEFFDD" style="stroke:#181818;stroke-width:1;"/><text fill="#000000" font-family="sans-serif" font-size="13" lengthAdjust="spacing" textLength="87.458" x="12" y="566.4666">Cross-cutting</text><text fill="#000000" font-family="sans-serif" font-size="13" lengthAdjust="spacing" textLength="4.1133" x="99.458" y="566.4666">&#160;</text><text fill="#000000" font-family="sans-serif" font-size="13" lengthAdjust="spacing" textLength="48.6167" x="103.5713" y="566.4666">DevOps</text><text fill="#000000" font-family="sans-serif" font-size="13" lengthAdjust="spacing" textLength="60.7407" x="12" y="581.7772">concerns:</text><text fill="#000000" font-family="sans-serif" font-size="13" lengthAdjust="spacing" textLength="94.7324" x="12" y="597.0877">authentication,</text><text fill="#000000" font-family="sans-serif" font-size="13" lengthAdjust="spacing" textLength="4.1133" x="106.7324" y="597.0877">&#160;</text><text fill="#000000" font-family="sans-serif" font-size="13" lengthAdjust="spacing" textLength="57.6748" x="110.8457" y="597.0877">sessions,</text><text fill="#000000" font-family="sans-serif" font-size="13" lengthAdjust="spacing" textLength="47.5439" x="12" y="612.3983">request</text><text fill="#000000" font-family="sans-serif" font-size="13" lengthAdjust="spacing" textLength="4.1133" x="59.5439" y="612.3983">&#160;</text><text fill="#000000" font-family="sans-serif" font-size="13" lengthAdjust="spacing" textLength="52" x="63.6572" y="612.3983">logging,</text><text fill="#000000" font-family="sans-serif" font-size="13" lengthAdjust="spacing" textLength="61.9722" x="12" y="627.7088">exception</text><text fill="#000000" font-family="sans-serif" font-size="13" lengthAdjust="spacing" textLength="4.1133" x="73.9722" y="627.7088">&#160;</text><text fill="#000000" font-family="sans-serif" font-size="13" lengthAdjust="spacing" textLength="52" x="78.0854" y="627.7088">logging,</text><text fill="#000000" font-family="sans-serif" font-size="13" lengthAdjust="spacing" textLength="4.1133" x="130.0854" y="627.7088">&#160;</text><text fill="#000000" font-family="sans-serif" font-size="13" lengthAdjust="spacing" textLength="23.4292" x="134.1987" y="627.7088">and</text><text fill="#000000" font-family="sans-serif" font-size="13" lengthAdjust="spacing" textLength="74.7373" x="12" y="643.0194">Prometheus</text><text fill="#000000" font-family="sans-serif" font-size="13" lengthAdjust="spacing" textLength="4.1133" x="86.7373" y="643.0194">&#160;</text><text fill="#000000" font-family="sans-serif" font-size="13" lengthAdjust="spacing" textLength="50.7178" x="90.8506" y="643.0194">metrics.</text></g><!--link WebUser to RazorUI--><g class="link" data-entity-1="ent0002" data-entity-2="ent0005" data-link-type="dependency" data-source-line="35" id="lnk21"><path d="M422.99,119.7983 C429.35,129.3483 435.98,139.6783 441.76,149.4783 C454.61,171.2583 464.9306,190.6798 475.6206,211.8998" fill="none" id="WebUser-to-RazorUI" style="stroke:#181818;stroke-width:1;"/><polygon fill="#181818" points="478.32,217.2583,477.8432,207.421,476.0705,212.7929,470.6985,211.0202,478.32,217.2583" style="stroke:#181818;stroke-width:1;"/><text fill="#000000" font-family="sans-serif" font-size="13" lengthAdjust="spacing" textLength="29.5039" x="451.77" y="163.0466">Uses</text><text fill="#000000" font-family="sans-serif" font-size="13" lengthAdjust="spacing" textLength="4.1133" x="481.2739" y="163.0466">&#160;</text><text fill="#000000" font-family="sans-serif" font-size="13" lengthAdjust="spacing" textLength="25.4414" x="485.3872" y="163.0466">web</text><text fill="#000000" font-family="sans-serif" font-size="13" lengthAdjust="spacing" textLength="4.1133" x="510.8286" y="163.0466">&#160;</text><text fill="#000000" font-family="sans-serif" font-size="13" lengthAdjust="spacing" textLength="12.7524" x="514.9419" y="163.0466">UI</text></g><!--link WebUser to IdentityUI--><g class="link" data-entity-1="ent0002" data-entity-2="ent0006" data-link-type="dependency" data-source-line="36" id="lnk22"><path d="M364.67,102.7683 C348.95,114.5383 331.2,130.6883 320.76,149.4783 C304.69,178.4083 301.0111,211.0099 300.4211,236.0999" fill="none" id="WebUser-to-IdentityUI" style="stroke:#181818;stroke-width:1;"/><polygon fill="#181818" points="300.28,242.0983,304.4905,233.1948,300.3975,237.0997,296.4927,233.0067,300.28,242.0983" style="stroke:#181818;stroke-width:1;"/><text fill="#000000" font-family="sans-serif" font-size="13" lengthAdjust="spacing" textLength="58.0049" x="321.76" y="163.0466">Registers</text><text fill="#000000" font-family="sans-serif" font-size="13" lengthAdjust="spacing" textLength="4.1133" x="379.7649" y="163.0466">&#160;</text><text fill="#000000" font-family="sans-serif" font-size="13" lengthAdjust="spacing" textLength="6.8174" x="383.8782" y="163.0466">/</text><text fill="#000000" font-family="sans-serif" font-size="13" lengthAdjust="spacing" textLength="4.1133" x="390.6955" y="163.0466">&#160;</text><text fill="#000000" font-family="sans-serif" font-size="13" lengthAdjust="spacing" textLength="26.4761" x="394.8088" y="163.0466">logs</text><text fill="#000000" font-family="sans-serif" font-size="13" lengthAdjust="spacing" textLength="4.1133" x="421.2849" y="163.0466">&#160;</text><text fill="#000000" font-family="sans-serif" font-size="13" lengthAdjust="spacing" textLength="11.8257" x="425.3982" y="163.0466">in</text></g><!--link Simulator to SimulatorAPI--><g class="link" data-entity-1="ent0003" data-entity-2="ent0007" data-link-type="dependency" data-source-line="37" id="lnk23"><path d="M707.76,119.7583 C707.76,153.1083 707.76,195.4183 707.76,227.6583" fill="none" id="Simulator-to-SimulatorAPI" style="stroke:#181818;stroke-width:1;"/><polygon fill="#181818" points="707.76,233.6583,711.76,224.6583,707.76,228.6583,703.76,224.6583,707.76,233.6583" style="stroke:#181818;stroke-width:1;"/><text fill="#000000" font-family="sans-serif" font-size="13" lengthAdjust="spacing" textLength="30.3164" x="708.76" y="163.0466">Calls</text><text fill="#000000" font-family="sans-serif" font-size="13" lengthAdjust="spacing" textLength="4.1133" x="739.0764" y="163.0466">&#160;</text><text fill="#000000" font-family="sans-serif" font-size="13" lengthAdjust="spacing" textLength="59.6934" x="743.1897" y="163.0466">simulator</text><text fill="#000000" font-family="sans-serif" font-size="13" lengthAdjust="spacing" textLength="4.1133" x="802.883" y="163.0466">&#160;</text><text fill="#000000" font-family="sans-serif" font-size="13" lengthAdjust="spacing" textLength="19.8999" x="806.9963" y="163.0466">API</text></g><!--link RazorUI to WebPipeline--><g class="link" data-entity-1="ent0005" data-entity-2="ent0008" data-link-type="dependency" data-source-line="39" id="lnk24"><path d="M502.76,320.2983 C502.76,341.6383 502.76,359.9183 502.76,379.0783" fill="none" id="RazorUI-to-WebPipeline" style="stroke:#181818;stroke-width:1;"/><polygon fill="#181818" points="502.76,385.0783,506.76,376.0783,502.76,380.0783,498.76,376.0783,502.76,385.0783" style="stroke:#181818;stroke-width:1;"/></g><!--link IdentityUI to WebPipeline--><g class="link" data-entity-1="ent0006" data-entity-2="ent0008" data-link-type="dependency" data-source-line="40" id="lnk25"><path d="M335.49,295.3883 C368.99,320.1783 415.0865,354.2898 451.9465,381.5598" fill="none" id="IdentityUI-to-WebPipeline" style="stroke:#181818;stroke-width:1;"/><polygon fill="#181818" points="456.77,385.1283,451.9138,376.5599,452.7505,382.1545,447.1558,382.9911,456.77,385.1283" style="stroke:#181818;stroke-width:1;"/></g><!--link SimulatorAPI to WebPipeline--><g class="link" data-entity-1="ent0007" data-entity-2="ent0008" data-link-type="dependency" data-source-line="41" id="lnk26"><path d="M660.99,303.7983 C627.66,328.0983 587.8984,357.0937 554.5384,381.4137" fill="none" id="SimulatorAPI-to-WebPipeline" style="stroke:#181818;stroke-width:1;"/><polygon fill="#181818" points="549.69,384.9483,559.319,382.8787,553.7303,382.0028,554.6062,376.4142,549.69,384.9483" style="stroke:#181818;stroke-width:1;"/></g><!--link RazorUI to CheepService--><g class="link" data-entity-1="ent0005" data-entity-2="ent0011" data-link-type="dependency" data-source-line="43" id="lnk27"><path d="M586.5,312.9583 C592.29,315.4383 598.07,317.7883 603.76,319.9183 C654.95,339.0783 668.92,341.4983 722.76,350.9183 C761.01,357.6083 773.01,346.3883 809.76,358.9183 C837.49,368.3683 860.5937,383.7578 878.9037,397.9178" fill="none" id="RazorUI-to-CheepService" style="stroke:#181818;stroke-width:1;"/><polygon fill="#181818" points="883.65,401.5883,878.9776,392.9183,879.6948,398.5295,874.0836,399.2467,883.65,401.5883" style="stroke:#181818;stroke-width:1;"/></g><!--link RazorUI to AuthorService--><g class="link" data-entity-1="ent0005" data-entity-2="ent0010" data-link-type="dependency" data-source-line="44" id="lnk28"><path d="M586.45,314.0683 C592.22,316.2683 598.02,318.2483 603.76,319.9183 C643.88,331.5683 939.17,342.8983 977.76,358.9183 C1000.71,368.4483 1017.9731,383.2004 1031.8131,397.3404" fill="none" id="RazorUI-to-AuthorService" style="stroke:#181818;stroke-width:1;"/><polygon fill="#181818" points="1036.01,401.6283,1032.5732,392.3985,1032.5126,398.055,1026.856,397.9944,1036.01,401.6283" style="stroke:#181818;stroke-width:1;"/></g><!--link SimulatorAPI to AuthorService--><g class="link" data-entity-1="ent0007" data-entity-2="ent0010" data-link-type="dependency" data-source-line="45" id="lnk29"><path d="M772.85,303.8083 C785.55,309.6883 798.91,315.3683 811.76,319.9183 C883.2,345.2083 909.75,325.4783 977.76,358.9183 C999.61,369.6583 1016.4604,383.7537 1030.5104,397.3637" fill="none" id="SimulatorAPI-to-AuthorService" style="stroke:#181818;stroke-width:1;"/><polygon fill="#181818" points="1034.82,401.5383,1031.1387,392.4033,1031.2287,398.0594,1025.5725,398.1494,1034.82,401.5383" style="stroke:#181818;stroke-width:1;"/></g><!--link SimulatorAPI to DbContext--><g class="link" data-entity-1="ent0007" data-entity-2="ent0014" data-link-type="dependency" data-source-line="46" id="lnk30"><path d="M770.25,303.9083 C783.63,310.0783 797.91,315.8383 811.76,319.9183 C879.2,339.7983 1072.83,312.6283 1125.76,358.9183 C1224.82,445.5383 1224.75,528.6183 1175.76,650.7583 C1166.24,674.4883 1151.7332,691.5507 1133.9132,707.4007" fill="none" id="SimulatorAPI-to-DbContext" style="stroke:#181818;stroke-width:1;"/><polygon fill="#181818" points="1129.43,711.3883,1138.8132,708.3957,1133.166,708.0653,1133.4964,702.4181,1129.43,711.3883" style="stroke:#181818;stroke-width:1;"/></g><!--link CheepService to CheepRepository--><g class="link" data-entity-1="ent0011" data-entity-2="ent0013" data-link-type="dependency" data-source-line="48" id="lnk31"><path d="M905.95,438.8483 C908.25,472.8983 912.8649,541.232 915.1649,575.222" fill="none" id="CheepService-to-CheepRepository" style="stroke:#181818;stroke-width:1;"/><polygon fill="#181818" points="915.57,581.2083,918.9533,571.9588,915.2324,576.2197,910.9715,572.4989,915.57,581.2083" style="stroke:#181818;stroke-width:1;"/></g><!--link AuthorService to AuthorRepository--><g class="link" data-entity-1="ent0010" data-entity-2="ent0012" data-link-type="dependency" data-source-line="49" id="lnk32"><path d="M1055.44,438.8483 C1062.54,472.8983 1076.7865,541.3444 1083.8665,575.3344" fill="none" id="AuthorService-to-AuthorRepository" style="stroke:#181818;stroke-width:1;"/><polygon fill="#181818" points="1085.09,581.2083,1087.1707,571.5817,1084.0704,576.3133,1079.3388,573.2131,1085.09,581.2083" style="stroke:#181818;stroke-width:1;"/></g><!--link CheepRepository to DbContext--><g class="link" data-entity-1="ent0013" data-entity-2="ent0014" data-link-type="dependency" data-source-line="50" id="lnk33"><path d="M938.2,618.3883 C966.56,641.6283 1012.3792,679.1653 1046.9992,707.5353" fill="none" id="CheepRepository-to-DbContext" style="stroke:#181818;stroke-width:1;"/><polygon fill="#181818" points="1051.64,711.3383,1047.2141,702.5399,1047.7727,708.1691,1042.1434,708.7277,1051.64,711.3383" style="stroke:#181818;stroke-width:1;"/></g><!--link AuthorRepository to DbContext--><g class="link" data-entity-1="ent0012" data-entity-2="ent0014" data-link-type="dependency" data-source-line="51" id="lnk34"><path d="M1088.76,618.3883 C1088.76,641.6283 1088.76,676.9683 1088.76,705.3383" fill="none" id="AuthorRepository-to-DbContext" style="stroke:#181818;stroke-width:1;"/><polygon fill="#181818" points="1088.76,711.3383,1092.76,702.3383,1088.76,706.3383,1084.76,702.3383,1088.76,711.3383" style="stroke:#181818;stroke-width:1;"/></g><!--link DbContext to PostgreSQL--><g class="link" data-entity-1="ent0014" data-entity-2="ent0017" data-link-type="dependency" data-source-line="53" id="lnk35"><path d="M1020.56,769.6583 C1001.41,779.0683 981.53,791.0883 965.76,805.7383 C944.19,825.7783 930.2344,849.7492 919.8644,871.7892" fill="none" id="DbContext-to-PostgreSQL" style="stroke:#181818;stroke-width:1;"/><polygon fill="#181818" points="917.31,877.2183,924.761,870.7776,919.4387,872.694,917.5223,867.3717,917.31,877.2183" style="stroke:#181818;stroke-width:1;"/><text fill="#000000" font-family="sans-serif" font-size="13" lengthAdjust="spacing" textLength="82.0942" x="966.76" y="819.3066">Reads/writes</text><text fill="#000000" font-family="sans-serif" font-size="13" lengthAdjust="spacing" textLength="4.1133" x="1048.8542" y="819.3066">&#160;</text><text fill="#000000" font-family="sans-serif" font-size="13" lengthAdjust="spacing" textLength="27.4028" x="1052.9675" y="819.3066">data</text></g><!--link WebPipeline to Redis--><g class="link" data-entity-1="ent0008" data-entity-2="ent0018" data-link-type="dependency" data-source-line="54" id="lnk36"><path d="M446.84,455.3883 C433.13,464.8483 418.91,475.6383 406.76,486.8983 C382.98,508.9183 363.6943,532.6043 346.9743,555.3443" fill="none" id="WebPipeline-to-Redis" style="stroke:#181818;stroke-width:1;"/><polygon fill="#181818" points="343.42,560.1783,351.974,555.2968,346.3819,556.15,345.5287,550.5578,343.42,560.1783" style="stroke:#181818;stroke-width:1;"/><text fill="#000000" font-family="sans-serif" font-size="13" lengthAdjust="spacing" textLength="91.895" x="407.76" y="500.4666">Cache/session</text><text fill="#000000" font-family="sans-serif" font-size="13" lengthAdjust="spacing" textLength="84.5952" x="411.4099" y="515.7772">configuration</text></g><!--link WebPipeline to Prometheus--><g class="link" data-entity-1="ent0008" data-entity-2="ent0019" data-link-type="dependency" data-source-line="55" id="lnk37"><path d="M505.43,454.9983 C508.13,489.3283 511.7879,535.7469 514.2479,566.9169" fill="none" id="WebPipeline-to-Prometheus" style="stroke:#181818;stroke-width:1;"/><polygon fill="#181818" points="514.72,572.8983,517.9995,563.6115,514.3266,567.9138,510.0243,564.2409,514.72,572.8983" style="stroke:#181818;stroke-width:1;"/><text fill="#000000" font-family="sans-serif" font-size="13" lengthAdjust="spacing" textLength="51.6826" x="511.18" y="507.9666">Exposes</text><text fill="#000000" font-family="sans-serif" font-size="13" lengthAdjust="spacing" textLength="4.1133" x="562.8626" y="507.9666">&#160;</text><text fill="#000000" font-family="sans-serif" font-size="13" lengthAdjust="spacing" textLength="53.4219" x="566.9759" y="507.9666">/metrics</text></g><!--link WebPipeline to Logs--><g class="link" data-entity-1="ent0008" data-entity-2="ent0020" data-link-type="dependency" data-source-line="56" id="lnk38"><path d="M586.08,455.2183 C601.47,463.9983 616.52,474.5383 628.76,486.8983 C653,511.3783 667.0297,542.6215 675.7497,567.2815" fill="none" id="WebPipeline-to-Logs" style="stroke:#181818;stroke-width:1;"/><polygon fill="#181818" points="677.75,572.9383,678.5208,563.1196,676.0831,568.2243,670.9784,565.7867,677.75,572.9383" style="stroke:#181818;stroke-width:1;"/><text fill="#000000" font-family="sans-serif" font-size="13" lengthAdjust="spacing" textLength="38.9302" x="656.5419" y="500.4666">Writes</text><text fill="#000000" font-family="sans-serif" font-size="13" lengthAdjust="spacing" textLength="4.1133" x="695.4721" y="500.4666">&#160;</text><text fill="#000000" font-family="sans-serif" font-size="13" lengthAdjust="spacing" textLength="65.2095" x="699.5854" y="500.4666">structured</text><text fill="#000000" font-family="sans-serif" font-size="13" lengthAdjust="spacing" textLength="85.5474" x="652.6" y="515.7772">request/error</text><text fill="#000000" font-family="sans-serif" font-size="13" lengthAdjust="spacing" textLength="4.1133" x="738.1474" y="515.7772">&#160;</text><text fill="#000000" font-family="sans-serif" font-size="13" lengthAdjust="spacing" textLength="26.4761" x="742.2606" y="515.7772">logs</text></g><!--link DbContext to DomainModel--><g class="link" data-entity-1="ent0014" data-entity-2="ent0016" data-link-type="dependency" data-source-line="58" id="lnk39"><path d="M1088.76,774.1583 C1088.76,802.2683 1088.76,837.9983 1088.76,867.2583" fill="none" id="DbContext-to-DomainModel" style="stroke:#181818;stroke-width:1;stroke-dasharray:7,7;"/><polygon fill="#181818" points="1088.76,873.2583,1092.76,864.2583,1088.76,868.2583,1084.76,864.2583,1088.76,873.2583" style="stroke:#181818;stroke-width:1;"/><text fill="#000000" font-family="sans-serif" font-size="13" lengthAdjust="spacing" textLength="33.1855" x="1089.76" y="819.3066">Maps</text><text fill="#000000" font-family="sans-serif" font-size="13" lengthAdjust="spacing" textLength="4.1133" x="1122.9455" y="819.3066">&#160;</text><text fill="#000000" font-family="sans-serif" font-size="13" lengthAdjust="spacing" textLength="46.4204" x="1127.0588" y="819.3066">entities</text></g><!--link WebPipeline to GMN43--><g class="link" data-entity-1="ent0008" data-entity-2="ent0044" data-link-type="association" data-source-line="67" id="lnk45"><path d="M419.37,455.3783 C358.52,480.5983 274.18,516.0883 200.76,548.8983 C195.28,551.3383 189.66,553.8883 183.99,556.4783" fill="none" id="WebPipeline-GMN43" style="stroke:#181818;stroke-width:1;stroke-dasharray:7,7;"/></g><?plantuml-src XLN1Rjim3BthAuYUqwJRQTXXG95sG81sov8MlUIYs8mjL9OqKLwQ3VltKOeJoqw1dInJZuyK-IW55JJ2ukdv-b4PzRHN0TO72jZ0hIzg5R08hKSXw5KP9xrieB2DimPDM8S3ktf6I5Dfp21KozBkbQbW9pNbEtiltOigGmqVFjrazaQ-FIAHh72jVYDy-7WZX2o2zN3rWbju9lHN80du9wvFUtFRUa9OgwRLaYq9S_uJmidYbJaPM2llfknz1Ny4z6U0gvNypKnBHX4yBpPcsMwrAY2e1hKoE86Mu_M_6wDjfSpCOwMuJ7u2pjkTuaAuI94II9JFYs6SHSaV5Gx7K1jpkrvElzq_mTnwhd-tcTnFFsE6la6d0yBjaZEUyHefJA1FYeqDLSIcdTPx6fQ5dOR4WrIMogMJRipAje5xE07PXZgcLCYWh65oubRnYlcv65N2D1YyAkZKf1EB-7lHX8NPUKd1jqbP5_suvM3Mhz7_KWKcke5b29xNY2x7veRtU5VeB2akmY6Zxetli8yyHZPsA6MGMqdOuU-sSsi2leMDkVzwBEaClhcAVkf4SDv_fpGHVL6GEzj8PU3HbgXPDYdZoJ4FRiLNgxNTSoTMM4JJCKPoIHunIf_XqbAeFAv_F32JSxfhwVaCoRi7PPuhB1MhzexrvTMs3LX28JdYhDC2KEkSzU4u014iiZCilMM1rDWonRhWEu27RPPBfWVaRdcA3xPYPmebgtB67_J7QOzs8Rfx0Qwllvp63px7QuDW7--FnG3HJnY3LjtGS4PHpWJAY7x28ZoV77QOIwq9A1z28Kv18pxNVnPgl3MW7MyE20UgpZU6et51-9_jNeeYZz27p7G-eCh8CyZ8PHHY31zdS5wcZLw3gKEofDdUysj4IQeYgzInvL5mgJMv90jhTgfgVHBGXKylENQyV-EyCb5UeAFC6FToJE9yVPNy_lri-VQTiHvP2pgfiJ_BTFebdqPcU9IE86b28KED3Vo6ggeEO7VZE_gfng7EW4_93sR2Skhnza6dxO7pY3ANsRn8KyPts7CGY5WWsU00SHhkgK36naIwTBOs1Dl46BaY0URU4bqNROZF0jpXh-zy52voWTxGPmQC7WhetuckIkVtWi7uLg1BYPmVaPXprfQk5rb-_m00?></g></svg>